<svg id="Layer_1" data-name="Layer 1" xmlns="http://www.w3.org/2000/svg" viewBox="0 0 121.24 63.38"><defs><style>.cls-1,.cls-5{fill:#555759;}.cls-2{fill:#d9272e;}.cls-3{fill:#636466;}.cls-4{fill:#ed1c24;stroke:#ed1c24;stroke-linecap:round;stroke-linejoin:round;stroke-width:0.25px;}.cls-5{font-size:3px;font-family:Futura;}</style></defs><title>Gloveworx_Logo_®_2C</title><path class="cls-1" d="M8.8,48.35l2,0.17,0.31,0a0.8,0.8,0,0,0,.53-0.19,0.75,0.75,0,0,0,.26-0.58V45.17a1.39,1.39,0,0,0-.38-0.87c-0.9-.93-1.35-1.41-2.25-2.38a1.55,1.55,0,0,0-.84-0.46l-3.66-.53a1.21,1.21,0,0,0-1,.28c-0.9.74-1.36,1.13-2.26,1.9l0,0a1.41,1.41,0,0,0-.34.84V60.88a1.43,1.43,0,0,0,.36.9C2.43,62.69,2.89,63.13,3.8,64a1.43,1.43,0,0,0,.88.34H5.26l3.11-.08a1.62,1.62,0,0,0,.83-0.32l0,0c0.89-.87,1.34-1.3,2.23-2.14a1.26,1.26,0,0,0,.42-0.88V52.54a0.84,0.84,0,0,0-.79-0.82l-4.23-.3H6.8A0.77,0.77,0,0,0,6,52.2v2.14a0.84,0.84,0,0,0,.79.83L8,55.23v4.51A0.39,0.39,0,0,1,8,59.9l-0.59.56a0.58,0.58,0,0,1-.21.08H5.88a0.48,0.48,0,0,1-.2-0.07l-0.59-.58A0.41,0.41,0,0,1,5,59.71V45.55s0-.13,0-0.13l0.63-.51a0.33,0.33,0,0,1,.13,0L7.09,45a0.63,0.63,0,0,1,.21.11l0,0,0.59,0.6A0.61,0.61,0,0,1,8,46v1.54A0.84,0.84,0,0,0,8.8,48.35Z" transform="translate(-1.16 -1)"/><path class="cls-1" d="M104.45,63.19c-0.6-3.06-.9-4.57-1.5-7.57v0h0l0.85-.78a1.29,1.29,0,0,0,.4-0.88V45.67a1.17,1.17,0,0,0-.43-0.85l-2.26-1.76a1.38,1.38,0,0,0-.92-0.25c-2.6.28-3.85,0.4-6.39,0.62a0.81,0.81,0,0,0-.78.79v19a0.83,0.83,0,0,0,.83.68l2.25,0a0.81,0.81,0,0,0,.82-0.77V57.34l2-.05c0.48,2.36.73,3.6,1.22,6a0.87,0.87,0,0,0,.86.7l2.31,0a0.76,0.76,0,0,0,.59-0.27A0.74,0.74,0,0,0,104.45,63.19ZM99.52,45.91V46.4a0.43,0.43,0,0,1,.2.07l0.59,0.45,0,0V53a0.34,0.34,0,0,1-.09.15l-0.57.52a0.55,0.55,0,0,1-.23.08l-0.37,0-1.78.08V46.59l2.22-.19V45.91h0Z" transform="translate(-1.16 -1)"/><path class="cls-1" d="M117.92,63.41c-1.43-3.58-3.55-8.57-3.87-9.32V53.68L118,41.52v-0.1a0.72,0.72,0,0,0-.68-0.71h-0.1l-2.44.37a1.43,1.43,0,0,0-.77.53l-0.06.08-2.06,6.85-2-6.23-0.1-.09a1.21,1.21,0,0,0-.74-0.35h-0.09l-2.47.31a0.77,0.77,0,0,0-.63.73V43l3.94,10.88a1.64,1.64,0,0,1,0,.26c-1.54,3.63-2.3,5.39-3.92,9a0.68,0.68,0,0,0,.06.63,0.74,0.74,0,0,0,.6.31l2.46,0.05a1.3,1.3,0,0,0,.81-0.41l0.07-.07,2-4.79,2.06,4.88L114,63.85a1.27,1.27,0,0,0,.81.46l1.53,0,0.94,0a0.7,0.7,0,0,0,.59-0.29A0.72,0.72,0,0,0,117.92,63.41Z" transform="translate(-1.16 -1)"/><polygon class="cls-2" points="83.98 18.65 84.56 10.29 75.62 0 69.87 0.19 65.28 4.13 65.27 4.13 59.62 9.03 58.83 8.12 63.89 3.73 58.13 2.06 53 6.52 54.33 16.9 54.31 16.88 43.2 23.06 46.14 26.9 32.8 36.65 59.17 32.46 56.91 29.72 72.96 28.22 83.98 18.65"/><path class="cls-1" d="M23.08,60.51h-5.2V43.25a0.86,0.86,0,0,0-.76-0.82l-2.23-.27H14.78a0.75,0.75,0,0,0-.77.75V63.35a0.77,0.77,0,0,0,.25.57,0.83,0.83,0,0,0,.56.21h0c3.29-.08,4.94-0.11,8.25-0.17a0.79,0.79,0,0,0,.81-0.78V61.28A0.8,0.8,0,0,0,23.08,60.51Z" transform="translate(-1.16 -1)"/><path class="cls-1" d="M35.77,46.16l0,0c-0.91-.77-1.37-1.16-2.27-2a1.42,1.42,0,0,0-.85-0.35l-3.68-.29h-0.1a1.33,1.33,0,0,0-.8.24l-0.11.08-2.17,1.61,0,0a1.25,1.25,0,0,0-.37.82V60.86a1.22,1.22,0,0,0,.4.84c0.92,0.77,1.38,1.15,2.3,1.9a1.56,1.56,0,0,0,.85.28h0l3.68-.05a1.52,1.52,0,0,0,.85-0.3l2.29-1.85a1.18,1.18,0,0,0,.41-0.82V47A1.28,1.28,0,0,0,35.77,46.16ZM30,46.47V47L31.33,47a0.61,0.61,0,0,1,.28.12l0.57,0.5a0.53,0.53,0,0,1,.08.11V59.85s0,0.06,0,.06l-0.6.5a0.75,0.75,0,0,1-.28.09H30.09a0.84,0.84,0,0,1-.23-0.06l-0.59-.49-0.05-.08V47.54a0.3,0.3,0,0,1,.05-0.1L29.86,47A0.52,0.52,0,0,1,30,47V46.47h0Z" transform="translate(-1.16 -1)"/><path class="cls-1" d="M48.87,44.9a0.79,0.79,0,0,0-.62-0.29l-2.33-.08a0.85,0.85,0,0,0-.85.59c-0.49,1.93-.86,4-1.22,6-0.24,1.33-.49,2.68-0.77,4-0.29-1.39-.55-2.82-0.8-4.22-0.35-2-.72-4-1.19-6a0.9,0.9,0,0,0-.84-0.65l-0.37,0L38,44.13H37.9a0.75,0.75,0,0,0-.59.26,0.67,0.67,0,0,0-.13.57c0.76,3.11,1.34,6,1.9,8.81,0.6,3,1.22,6.07,2,9.3a0.85,0.85,0,0,0,.86.66l2.25,0a0.85,0.85,0,0,0,.86-0.63C45.85,60,46.44,57.16,47,54.39s1.19-5.82,2-8.94A0.65,0.65,0,0,0,48.87,44.9ZM42,63.23h0Z" transform="translate(-1.16 -1)"/><path class="cls-3" d="M59.18,48A0.78,0.78,0,0,0,60,47.24V45.55a0.79,0.79,0,0,0-.82-0.74c-3.08,0-4.59,0-7.73-.11a0.76,0.76,0,0,0-.81.74v17.5a0.71,0.71,0,0,0,.29.57,0.86,0.86,0,0,0,.53.17h0l7.71,0A0.78,0.78,0,0,0,60,62.91V61.22a0.79,0.79,0,0,0-.82-0.74H54.53V55.78l3.47,0a0.78,0.78,0,0,0,.82-0.74V53.37A0.8,0.8,0,0,0,58,52.63l-3.47,0V47.93C56.35,48,57.31,48,59.18,48Zm-7.72,15.2h0Z" transform="translate(-1.16 -1)"/><path class="cls-1" d="M79.47,44.62a0.78,0.78,0,0,0-.65-0.27l-2.26.11a0.88,0.88,0,0,0-.84.63c-0.44,1.9-.77,3.91-1.09,5.84-0.2,1.23-.41,2.48-0.65,3.71-0.21-1.19-.39-2.4-0.57-3.58-0.29-1.93-.59-3.93-1-5.81a0.65,0.65,0,0,0-.61-0.61H71.15l-1.89,0H68.88a0.64,0.64,0,0,0-.56.62c-0.39,1.87-.7,3.85-1,5.77-0.18,1.2-.37,2.42-0.58,3.62-0.23-1.19-.44-2.4-0.63-3.58-0.32-1.92-.66-3.9-1.1-5.75a0.87,0.87,0,0,0-.87-0.61H61.86a0.78,0.78,0,0,0-.63.28,0.65,0.65,0,0,0-.12.56c0.73,3,1.28,5.91,1.82,8.69S64,60,64.74,63a0.86,0.86,0,0,0,.87.65h2.52A0.87,0.87,0,0,0,69,63c0.57-2.68.91-4.32,1.38-6.57,0.46,2.17.8,3.78,1.35,6.35l0,0.22a0.86,0.86,0,0,0,.87.66h2.52A0.84,0.84,0,0,0,76,63.06c0.74-3.18,1.3-6.2,1.83-9.12s1.05-5.68,1.75-8.77A0.65,0.65,0,0,0,79.47,44.62Z" transform="translate(-1.16 -1)"/><path class="cls-1" d="M90.92,45.81l0,0L88.6,44.1a1.3,1.3,0,0,0-.79-0.25h-0.1L84,44.11a1.5,1.5,0,0,0-.85.33c-0.91.76-1.36,1.14-2.28,1.89l0,0a1.24,1.24,0,0,0-.36.8V60.85a1.17,1.17,0,0,0,.41.82l2.29,1.81a1.62,1.62,0,0,0,.85.29h0.56l3.13,0h0a1.47,1.47,0,0,0,.84-0.28l2.3-1.86a1.19,1.19,0,0,0,.4-0.82V46.62A1.2,1.2,0,0,0,90.92,45.81ZM86.54,60.49H85.26A0.74,0.74,0,0,1,85,60.42L84.43,60l0-.06h0V48a0.46,0.46,0,0,1,.07-0.12l0.6-.49a0.69,0.69,0,0,1,.23-0.09l1.28-.07V46.74h0v0.49a0.51,0.51,0,0,1,.24.07l0.57,0.43,0,0.05V59.85a0.45,0.45,0,0,0,0,.06l-0.59.5A0.74,0.74,0,0,1,86.54,60.49Zm1.21,2.83h0Z" transform="translate(-1.16 -1)"/><path class="cls-4" d="M32.41,47.87" transform="translate(-1.16 -1)"/><text class="cls-5" transform="translate(117.82 42.12)">®</text></svg>